<svg width="1610.9" height="371.5" viewBox="0 0 426.1 98.3" xmlns:xlink="http://www.w3.org/1999/xlink" xmlns="http://www.w3.org/2000/svg"><use height="100%" width="100%" y="574" x="753.7" xlink:href="#a" transform="translate(-1860 -1307) scale(4.07177)" style="opacity:.5;fill:#86db36;fill-opacity:1"/><use height="100%" width="100%" y="574" x="754.9" xlink:href="#a" transform="translate(-1860 -1307) scale(4.07177)" style="opacity:.5;fill:#86db36;fill-opacity:1"/><use height="100%" width="100%" y="574" x="756.1" xlink:href="#a" transform="translate(-1860 -1307) scale(4.07177)" style="opacity:.5;fill:#86db36;fill-opacity:1"/><use height="100%" width="100%" y="574" x="757.3" xlink:href="#a" transform="translate(-1860 -1307) scale(4.07177)" style="opacity:.5;fill:#86db36;fill-opacity:1"/><use height="100%" width="100%" y="574" x="758.5" xlink:href="#a" transform="translate(-1860 -1307) scale(4.07177)" style="opacity:.5;fill:#86db36;fill-opacity:1"/><use height="100%" width="100%" y="574" x="759.7" xlink:href="#a" transform="translate(-1860 -1307) scale(4.07177)" style="opacity:.5;fill:#86db36;fill-opacity:1"/><use height="100%" width="100%" y="574" x="760.9" xlink:href="#a" transform="translate(-1860 -1307) scale(4.07177)" style="opacity:.5;fill:#86db36;fill-opacity:1"/><use height="100%" width="100%" y="574" x="762.1" xlink:href="#a" transform="translate(-1860 -1307) scale(4.07177)" style="opacity:.5;fill:#86db36;fill-opacity:1"/><use height="100%" width="100%" y="574" x="763.3" xlink:href="#a" transform="translate(-1860 -1307) scale(4.07177)" style="opacity:.5;fill:#86db36;fill-opacity:1"/><use height="100%" width="100%" y="574" x="764.5" xlink:href="#a" transform="translate(-1860 -1307) scale(4.07177)" style="opacity:.5;fill:#86db36;fill-opacity:1"/><use height="100%" width="100%" y="574" x="765.7" xlink:href="#a" transform="translate(-1860 -1307) scale(4.07177)" style="opacity:.5;fill:#86db36;fill-opacity:1"/><use height="100%" width="100%" y="574" x="766.9" xlink:href="#a" transform="translate(-1860 -1307) scale(4.07177)" style="opacity:.5;fill:#86db36;fill-opacity:1"/><use height="100%" width="100%" y="579.2" x="756.1" xlink:href="#a" transform="translate(-1860 -1307) scale(4.07177)" style="opacity:.5;fill:#86db36;fill-opacity:1"/><use height="100%" width="100%" y="233.3" x="735.4" xlink:href="#b" transform="translate(-1860 -1307) scale(4.07177)" style="opacity:.5;fill:#86db36;fill-opacity:1"/><use height="100%" width="100%" y="326.9" x="735.4" xlink:href="#b" transform="translate(-1860 -1307) scale(4.07177)" style="opacity:.5;fill:#86db36;fill-opacity:1"/><use height="100%" width="100%" y="326.9" x="757.3" xlink:href="#b" transform="translate(-1860 -1307) scale(4.07177)" style="opacity:.5;fill:#86db36;fill-opacity:1"/><g transform="translate(0 -1) scale(2.06886)"><path d="M10 33h2v15h-2zm15 0h2v15h-2z" fill="#afafaf" stroke-width=".3"/><path d="M2 4a2 2 0 0 0-2 2v26a2 2 0 0 0 2 2h33a2 2 0 0 0 1-2V6a2 2 0 0 0-1-2Z" fill="#2d2d2d"/><ellipse cx="18.4" cy="5.3" rx="18" ry="3.6" fill="#2d2d2d" stroke="#dfdfdf" stroke-width=".3"/><ellipse cx="18.4" cy="5.3" rx="3" ry="1.4" fill="#fff"/></g><path style="fill:#2d2d2d;fill-opacity:1;stroke:#dfdfdf;stroke-width:.829752;stroke-miterlimit:4;stroke-dasharray:none;stroke-opacity:1" d="M384 8a41 41 0 0 0-41 41 41 41 0 0 0 41 41 41 41 0 0 0 42-41 41 41 0 0 0-42-41zm0 34a7 7 0 0 1 8 7 7 7 0 0 1-8 7 7 7 0 0 1-7-7 7 7 0 0 1 7-7z"/><path style="fill:#2d2d2d;fill-opacity:1;stroke:#dfdfdf;stroke-width:.829752;stroke-miterlimit:4;stroke-dasharray:none;stroke-opacity:1" d="M334 8a41 41 0 0 0-41 41 41 41 0 0 0 41 41 41 41 0 0 0 41-41 41 41 0 0 0-41-41zm0 34a7 7 0 0 1 7 7 7 7 0 0 1-7 7 7 7 0 0 1-7-7 7 7 0 0 1 7-7z"/><path style="fill:#2d2d2d;fill-opacity:1;stroke:#dfdfdf;stroke-width:.829752;stroke-miterlimit:4;stroke-dasharray:none;stroke-opacity:1" d="M284 8a41 41 0 0 0-41 41 41 41 0 0 0 41 41 41 41 0 0 0 41-41 41 41 0 0 0-41-41zm0 34a7 7 0 0 1 7 7 7 7 0 0 1-7 7 7 7 0 0 1-7-7 7 7 0 0 1 7-7z"/><g style="fill:#b7302f;fill-opacity:1"><path style="fill:#b7302f;fill-opacity:1;stroke:none;stroke-width:.264538;stroke-opacity:1" d="M138 271a78 52 0 0 1 40-7 78 52 0 0 1 41 7 52 52 0 0 0-41-19 52 52 0 0 0-40 19z" transform="rotate(82 351 182) scale(1.09711)"/><path style="fill:#b7302f;fill-opacity:1;stroke:none;stroke-width:.19249;stroke-opacity:1" d="M149 283a57 38 0 0 1 29-6 57 38 0 0 1 30 6 38 38 0 0 0-30-14 38 38 0 0 0-29 14z" transform="rotate(82 351 182) scale(1.09711)"/><path style="fill:#b7302f;fill-opacity:1;stroke:none;stroke-width:.126004;stroke-opacity:1" d="M159 295a37 25 0 0 1 19-4 37 25 0 0 1 20 4 25 25 0 0 0-20-10 25 25 0 0 0-19 10z" transform="rotate(82 351 182) scale(1.09711)"/></g><g transform="matrix(2.05637 0 0 2.07094 53 -1)"><path d="M10 33h2v15h-2zm15 0h2v15h-2z" fill="#afafaf" stroke-width=".3"/><path d="M2 4a2 2 0 0 0-2 2v26a2 2 0 0 0 2 2h33a2 2 0 0 0 1-2V6a2 2 0 0 0-1-2Z" fill="#2d2d2d" style="stroke:#dfdfdf;stroke-width:.352102;stroke-miterlimit:4;stroke-dasharray:none;stroke-opacity:1"/><ellipse cx="18.4" cy="5.3" rx="18" ry="3.6" fill="#2d2d2d" stroke="#dfdfdf" stroke-width=".3"/><ellipse cx="18.4" cy="5.3" rx="3" ry="1.4" fill="#fff"/></g><g transform="matrix(.31423 2.03222 -2.04662 .31646 184 8)"><path d="M10 33h2v15h-2zm15 0h2v15h-2z" fill="#afafaf" stroke-width=".3"/><path d="M2 4a2 2 0 0 0-2 2v26a2 2 0 0 0 2 2h33a2 2 0 0 0 1-2V6a2 2 0 0 0-1-2Z" fill="#2d2d2d" style="stroke:#dfdfdf;stroke-width:.352102;stroke-miterlimit:4;stroke-dasharray:none;stroke-opacity:1"/><ellipse cx="18.4" cy="5.3" rx="18" ry="3.6" fill="#2d2d2d" stroke="#dfdfdf" stroke-width=".3"/><ellipse cx="18.4" cy="5.3" rx="3" ry="1.4" fill="#fff"/></g></svg>