<?xml version="1.0" encoding="UTF-8" standalone="no"?>
<svg
   width="234.2"
   height="226.7"
   viewBox="0 0 24397.6 23613.2"
   version="1.1"
   id="svg160"
   sodipodi:docname="buzzer_connection_circuit.svg"
   inkscape:version="1.1.2 (b8e25be833, 2022-02-05)"
   xmlns:inkscape="http://www.inkscape.org/namespaces/inkscape"
   xmlns:sodipodi="http://sodipodi.sourceforge.net/DTD/sodipodi-0.dtd"
   xmlns="http://www.w3.org/2000/svg"
   xmlns:svg="http://www.w3.org/2000/svg">
  <defs
     id="defs164" />
  <sodipodi:namedview
     id="namedview162"
     pagecolor="#ffffff"
     bordercolor="#999999"
     borderopacity="1"
     inkscape:pageshadow="0"
     inkscape:pageopacity="0"
     inkscape:pagecheckerboard="0"
     showgrid="false"
     inkscape:zoom="0.97485665"
     inkscape:cx="270.80905"
     inkscape:cy="238.4966"
     inkscape:window-width="1842"
     inkscape:window-height="1051"
     inkscape:window-x="69"
     inkscape:window-y="-9"
     inkscape:window-maximized="1"
     inkscape:current-layer="svg160" />
  <g
     style="fill:#000;fill-opacity:0;stroke:#000;stroke-width:60;stroke-linecap:round;stroke-linejoin:round;stroke-opacity:1"
     id="g4">
    <path
       style="fill:none;fill-opacity:0;stroke:#000;stroke-width:60;stroke-linecap:round;stroke-linejoin:round;stroke-opacity:1"
       d="M311400 68500v-2000"
       transform="translate(-294853 -65336)"
       id="path2" />
  </g>
  <g
     style="fill:#000;fill-opacity:0;stroke:#000;stroke-width:200;stroke-linecap:round;stroke-linejoin:round;stroke-opacity:1"
     id="g8">
    <path
       style="fill:none;fill-opacity:0;stroke:#000;stroke-width:200;stroke-linecap:round;stroke-linejoin:round;stroke-opacity:1"
       d="M312650 66500h-2500"
       transform="translate(-294853 -65336)"
       id="path6" />
  </g>
  <g
     class="stroked-text"
     transform="translate(-294853 -65336)"
     style="fill:#000;fill-opacity:0;stroke:#000;stroke-width:60;stroke-linecap:round;stroke-linejoin:round;stroke-opacity:1"
     id="g12">
    <path
       d="m310843 65700 100 33 34 33 33 67v100l-33 67-34 33-66 33h-267v-700h233l67 34 33 33 34 67v66l-34 67-33 33-67 34h-233M311277 65866h333M311210 66066l233-700 234 700M311810 65366h400M312010 66066v-700"
       fill="none"
       id="path10" />
  </g>
  <g
     style="fill:#000;fill-opacity:0;stroke:#000;stroke-width:200;stroke-linecap:round;stroke-linejoin:round;stroke-opacity:1"
     id="g16">
    <path
       style="fill:none;fill-opacity:0;stroke:#000;stroke-width:200;stroke-linecap:round;stroke-linejoin:round;stroke-opacity:1"
       d="M310150 82500h2500M310650 83000h1500M311150 83500h500"
       transform="translate(-294853 -65336)"
       id="path14" />
  </g>
  <g
     style="fill:#000;fill-opacity:0;stroke:#000;stroke-width:60;stroke-linecap:round;stroke-linejoin:round;stroke-opacity:1"
     id="g20">
    <path
       style="fill:none;fill-opacity:0;stroke:#000;stroke-width:60;stroke-linecap:round;stroke-linejoin:round;stroke-opacity:1"
       d="M311400 80500v2000"
       transform="translate(-294853 -65336)"
       id="path18" />
  </g>
  <rect
     x="304650"
     y="80000"
     width="1500"
     height="4000"
     rx="0"
     fill="none"
     style="fill:#000;fill-opacity:0;stroke:#000;stroke-width:200;stroke-linecap:round;stroke-linejoin:round;stroke-opacity:1"
     transform="translate(-294853 -65336)"
     id="rect22" />
  <g
     style="fill:#000;fill-opacity:0;stroke:#000;stroke-width:60;stroke-linecap:round;stroke-linejoin:round;stroke-opacity:1"
     id="g34">
    <path
       style="fill:none;fill-opacity:0;stroke:#000;stroke-width:60;stroke-linecap:round;stroke-linejoin:round;stroke-opacity:1"
       d="M305400 78500v1500M305400 84000v1500"
       transform="translate(-294853 -65336)"
       id="path24" />
    <g
       class="stroked-text"
       transform="translate(-294853 -65336)"
       id="g28">
      <path
         d="m307008 81896-234-333M306608 81896v-700h266l67 33 33 34 34 66v100l-34 67-33 33-67 34h-266M307274 81263l34-34 66-33h167l67 33 33 34 33 66v67l-33 100-400 400h433"
         fill="none"
         id="path26" />
    </g>
    <g
       class="stroked-text"
       transform="translate(-294853 -65336)"
       id="g32">
      <path
         d="M307008 82896h-400M306808 82896v-700l-67 100-67 67-66 33M307441 82196h67l66 33 34 34 33 66 33 134v166l-33 134-33 66-34 34-66 33h-67l-67-33-33-34-33-66-34-134v-166l34-134 33-66 33-34 67-33M307974 82896v-700M308041 82629l200 267M308241 82429l-267 267"
         fill="none"
         id="path30" />
    </g>
  </g>
  <g
     style="fill:#000;fill-opacity:0;stroke:#000;stroke-width:200;stroke-linecap:round;stroke-linejoin:round;stroke-opacity:1"
     id="g38">
    <path
       style="fill:none;fill-opacity:0;stroke:#000;stroke-width:200;stroke-linecap:round;stroke-linejoin:round;stroke-opacity:1"
       d="M304150 87500h2500M304650 88000h1500M305150 88500h500"
       transform="translate(-294853 -65336)"
       id="path36" />
  </g>
  <g
     style="fill:#000;fill-opacity:0;stroke:#000;stroke-width:60;stroke-linecap:round;stroke-linejoin:round;stroke-opacity:1"
     id="g42">
    <path
       style="fill:none;fill-opacity:0;stroke:#000;stroke-width:60;stroke-linecap:round;stroke-linejoin:round;stroke-opacity:1"
       d="M305400 85500v2000"
       transform="translate(-294853 -65336)"
       id="path40" />
  </g>
  <g
     style="fill:#000;fill-opacity:0;stroke:#000;stroke-width:60;stroke-linecap:round;stroke-linejoin:round;stroke-opacity:1"
     id="g46">
    <path
       style="fill:none;fill-opacity:0;stroke:#000;stroke-width:60;stroke-linecap:round;stroke-linejoin:round;stroke-opacity:1"
       d="M311400 68500v1750M311400 71750v1750"
       transform="translate(-294853 -65336)"
       id="path44" />
  </g>
  <g
     style="fill:#000;fill-opacity:0;stroke:#000;stroke-width:200;stroke-linecap:round;stroke-linejoin:round;stroke-opacity:1"
     id="g50">
    <path
       style="fill:none;fill-opacity:0;stroke:#000;stroke-width:200;stroke-linecap:round;stroke-linejoin:round;stroke-opacity:1"
       d="M311900 71750v-1500h-1000v1500h1000l1000 1250v-4000l-1000 1250"
       transform="translate(-294853 -65336)"
       id="path48" />
  </g>
  <g
     style="fill:#000;fill-opacity:0;stroke:#000;stroke-width:60;stroke-linecap:round;stroke-linejoin:round;stroke-opacity:1"
     id="g60">
    <g
       class="stroked-text"
       transform="translate(-294853 -65336)"
       id="g54">
      <path
         d="m313683 70340 100 33 34 33 33 67v100l-33 67-34 33-66 33h-267v-700h233l67 34 33 33 34 67v66l-34 67-33 33-67 34h-233M314117 70506h333M314050 70706l233-700 234 700M315117 70706h-400M314917 70706v-700l-67 100-67 67-66 33"
         fill="none"
         id="path52" />
    </g>
    <g
       class="stroked-text"
       transform="translate(-294853 -65336)"
       id="g58">
      <path
         d="m313683 71550 100 33 34 33 33 67v100l-33 67-34 33-66 33h-267v-700h233l67 34 33 33 34 67v66l-34 67-33 33-67 34h-233M314150 71216v567l33 67 34 33 66 33h134l66-33 34-33 33-67v-567M314817 71216h466l-466 700h466M315483 71216h467l-467 700h467M316217 71550h233M316550 71916h-333v-700h333M317250 71916l-233-333M316850 71916v-700h267l66 34 34 33 33 67v100l-33 66-34 34-66 33h-267"
         fill="none"
         id="path56" />
    </g>
  </g>
  <g
     style="fill:#000;fill-opacity:0;stroke:#000;stroke-width:60;stroke-linecap:round;stroke-linejoin:round;stroke-opacity:1"
     id="g64">
    <path
       style="fill:none;fill-opacity:0;stroke:#000;stroke-width:60;stroke-linecap:round;stroke-linejoin:round;stroke-opacity:1"
       d="M305400 78500h3500"
       transform="translate(-294853 -65336)"
       id="path62" />
  </g>
  <g
     style="fill:#000;fill-opacity:0;stroke:#000;stroke-width:200;stroke-linecap:round;stroke-linejoin:round;stroke-opacity:1"
     id="g68">
    <path
       style="fill:none;fill-opacity:0;stroke:#000;stroke-width:200;stroke-linecap:round;stroke-linejoin:round;stroke-opacity:1"
       d="M308900 75500v3000"
       transform="translate(-294853 -65336)"
       id="path66" />
  </g>
  <g
     style="fill:#000;fill-opacity:0;stroke:#000;stroke-width:100;stroke-linecap:round;stroke-linejoin:round;stroke-opacity:1"
     id="g72">
    <path
       style="fill:none;fill-opacity:0;stroke:#000;stroke-width:100;stroke-linecap:round;stroke-linejoin:round;stroke-opacity:1"
       d="M309400 78500h2000M309400 75500h2000"
       transform="translate(-294853 -65336)"
       id="path70" />
  </g>
  <g
     style="fill:#000;fill-opacity:0;stroke:#000;stroke-width:200;stroke-linecap:round;stroke-linejoin:round;stroke-opacity:1"
     id="g76">
    <path
       style="fill:none;fill-opacity:0;stroke:#000;stroke-width:200;stroke-linecap:round;stroke-linejoin:round;stroke-opacity:1"
       d="M309400 75000v4000"
       transform="translate(-294853 -65336)"
       id="path74" />
  </g>
  <g
     style="fill:#000;fill-opacity:0;stroke:#000;stroke-width:60;stroke-linecap:round;stroke-linejoin:round;stroke-opacity:1"
     id="g80">
    <path
       style="fill:none;fill-opacity:0;stroke:#000;stroke-width:60;stroke-linecap:round;stroke-linejoin:round;stroke-opacity:1"
       d="M311400 78500v2000M311400 75500v-2000"
       transform="translate(-294853 -65336)"
       id="path78" />
  </g>
  <g
     style="fill:#000;fill-opacity:0;stroke:#000;stroke-width:100;stroke-linecap:round;stroke-linejoin:round;stroke-opacity:1"
     id="g84">
    <path
       style="fill:none;fill-opacity:0;stroke:#000;stroke-width:100;stroke-linecap:round;stroke-linejoin:round;stroke-opacity:1"
       d="M309400 77000h2000v1500"
       transform="translate(-294853 -65336)"
       id="path82" />
  </g>
  <g
     style="fill:#000;fill-opacity:1;stroke:#000;stroke-width:100;stroke-linecap:round;stroke-linejoin:round;stroke-opacity:1"
     id="g88">
    <path
       style="fill:#000;fill-opacity:1;fill-rule:evenodd;stroke:#000;stroke-width:100;stroke-linecap:round;stroke-linejoin:round;stroke-opacity:1"
       d="m310150 77250-750-250 750-250z"
       transform="translate(-294853 -65336)"
       id="path86" />
  </g>
  <circle
     cx="309400"
     cy="77000"
     r="2500"
     fill="none"
     style="fill:#000;fill-opacity:0;stroke:#000;stroke-width:200;stroke-linecap:round;stroke-linejoin:round;stroke-opacity:1"
     transform="translate(-294853 -65336)"
     id="circle90" />
  <g
     style="fill:#000;fill-opacity:0;stroke:#000;stroke-width:60;stroke-linecap:round;stroke-linejoin:round;stroke-opacity:1"
     id="g100">
    <g
       class="stroked-text"
       transform="translate(-294853 -65336)"
       id="g94">
      <path
         d="m312390 76006 233 700 234-700M312990 76006h400M313190 76706v-700M313990 76706h-400M313790 76706v-700l-67 100-66 67-67 33"
         fill="none"
         id="path92" />
    </g>
    <g
       class="stroked-text"
       transform="translate(-294853 -65336)"
       id="g98">
      <path
         d="M312490 77916v-700M313223 77916l-233-333M312823 77916v-700h267l67 34 33 33 33 67v100l-33 66-33 34-67 33h-267M313857 77916h-334v-700M314090 77916v-700l233 500 234-500v700M315223 77916h-333v-700M315423 77283l34-33 66-34h167l67 34 33 33 33 67v66l-33 100-400 400h433M316457 77216h-334l-33 334 33-34 67-33h167l66 33 34 34 33 66v167l-33 67-34 33-66 33h-167l-67-33-33-33M316923 77216h67l67 34 33 33 33 67 34 133v167l-34 133-33 67-33 33-67 33h-67l-66-33-34-33-33-67-33-133v-167l33-133 33-67 34-33 66-34M317423 77283l34-33 66-34h167l67 34 33 33 33 67v66l-33 100-400 400h433"
         fill="none"
         id="path96" />
    </g>
  </g>
  <rect
     x="299900"
     y="77750"
     width="4000"
     height="1500"
     rx="0"
     fill="none"
     style="fill:#000;fill-opacity:0;stroke:#000;stroke-width:200;stroke-linecap:round;stroke-linejoin:round;stroke-opacity:1"
     transform="translate(-294853 -65336)"
     id="rect102" />
  <g
     style="fill:#000;fill-opacity:0;stroke:#000;stroke-width:60;stroke-linecap:round;stroke-linejoin:round;stroke-opacity:1"
     id="g114">
    <path
       style="fill:none;fill-opacity:0;stroke:#000;stroke-width:60;stroke-linecap:round;stroke-linejoin:round;stroke-opacity:1"
       d="M305400 78500h-1500M299900 78500h-1500"
       transform="translate(-294853 -65336)"
       id="path104" />
    <g
       class="stroked-text"
       transform="translate(-294853 -65336)"
       id="g108">
      <path
         d="m301783 77316-233-333M301383 77316v-700h267l66 34 34 33 33 67v100l-33 66-34 34-66 33h-267M302450 77316h-400M302250 77316v-700l-67 100-67 67-66 33"
         fill="none"
         id="path106" />
    </g>
    <g
       class="stroked-text"
       transform="translate(-294853 -65336)"
       id="g112">
      <path
         d="M301766 80316h-400M301566 80316v-700l-66 100-67 67-67 33M302200 79616h66l67 34 33 33 34 67 33 133v167l-33 133-34 67-33 33-67 33h-66l-67-33-33-33-34-67-33-133v-167l33-133 34-67 33-33 67-34"
         fill="none"
         id="path110" />
    </g>
  </g>
  <g
     style="fill:#000;fill-opacity:0;stroke:#000;stroke-width:60;stroke-linecap:round;stroke-linejoin:round;stroke-opacity:1"
     id="g118">
    <path
       style="fill:none;fill-opacity:0;stroke:#000;stroke-width:60;stroke-linecap:round;stroke-linejoin:round;stroke-opacity:1"
       d="M305400 68500v5000"
       transform="translate(-294853 -65336)"
       id="path116" />
  </g>
  <g
     style="fill:#000;fill-opacity:0;stroke:#000;stroke-width:200;stroke-linecap:round;stroke-linejoin:round;stroke-opacity:1"
     id="g122">
    <path
       style="fill:none;fill-opacity:0;stroke:#000;stroke-width:200;stroke-linecap:round;stroke-linejoin:round;stroke-opacity:1"
       d="M304400 70000h1000l-1000 2000h2000l-1000-2000h1000"
       transform="translate(-294853 -65336)"
       id="path120" />
  </g>
  <g
     style="fill:#000;fill-opacity:0;stroke:#000;stroke-width:60;stroke-linecap:round;stroke-linejoin:round;stroke-opacity:1"
     id="g132">
    <g
       class="stroked-text"
       transform="translate(-294853 -65336)"
       id="g126">
      <path
         d="m306756 70216 233 700 233-700M307456 70916v-700h166l100 34 67 66 33 67 34 133v100l-34 134-33 66-67 67-100 33h-166M308522 70916h-400M308322 70916v-700l-66 100-67 67-67 33"
         fill="none"
         id="path124" />
    </g>
    <g
       class="stroked-text"
       transform="translate(-294853 -65336)"
       id="g130">
      <path
         d="M306822 71216v567l34 67 33 33 67 33h133l67-33 33-33 33-67v-567M307789 71550h-233M307556 71916v-700h333M308456 71450v466M308289 71183l-167 500h434M308956 71216h66l67 34 33 33 34 67 33 133v167l-33 133-34 67-33 33-67 33h-66l-67-33-33-33-34-67-33-133v-167l33-133 34-67 33-33 67-34M309622 71216h67l67 34 33 33 33 67 34 133v167l-34 133-33 67-33 33-67 33h-67l-66-33-34-33-33-67-33-133v-167l33-133 33-67 34-33 66-34M310089 71216h467l-300 700"
         fill="none"
         id="path128" />
    </g>
  </g>
  <g
     class="stroked-text"
     style="fill:#000;fill-opacity:0;stroke:#000;stroke-width:60;stroke-linecap:round;stroke-linejoin:round;stroke-opacity:1"
     transform="translate(-294853 -65336)"
     id="g136">
    <path
       d="m295736 78200-66-34h-100l-100 34-67 66-33 67-34 133v100l34 134 33 66 67 67 100 33h66l100-33 34-33v-234h-134M296070 78866v-700h266l67 34 33 33 34 67v100l-34 66-33 34-67 33h-266M296770 78866v-700M297236 78166h134l66 34 67 66 33 134v233l-33 133-67 67-66 33h-134l-66-33-67-67-33-133v-233l33-134 67-66 66-34"
       fill="none"
       id="path134" />
  </g>
  <path
     style="fill:none;fill-opacity:0;stroke:#000;stroke-width:60;stroke-linecap:round;stroke-linejoin:round;stroke-opacity:1"
     d="m3547 13164-525-613H30v1226h2992z"
     id="path138" />
  <path
     d="M10547 8164h6000M10547 3164h6000"
     style="fill:#000;fill-opacity:0;stroke:#000;stroke-width:60;stroke-linecap:round;stroke-linejoin:round;stroke-opacity:1"
     fill="none"
     id="path140" />
  <circle
     cx="10546.8"
     cy="13164"
     r="180"
     style="fill:#000;fill-opacity:1;stroke:#000;stroke-width:60;stroke-linecap:round;stroke-linejoin:round;stroke-opacity:1"
     id="circle142" />
  <circle
     cx="16546.8"
     cy="8164"
     r="180"
     style="fill:#000;fill-opacity:1;stroke:#000;stroke-width:60;stroke-linecap:round;stroke-linejoin:round;stroke-opacity:1"
     id="circle144" />
  <circle
     cx="16546.8"
     cy="3164"
     r="180"
     style="fill:#000;fill-opacity:1;stroke:#000;stroke-width:60;stroke-linecap:round;stroke-linejoin:round;stroke-opacity:1"
     id="circle146" />
</svg>
