<svg width="263" height="223.3" viewBox="0 0 27392.2 23264" xmlns="http://www.w3.org/2000/svg"><g style="fill:#000;fill-opacity:0;stroke:#000;stroke-width:137.795;stroke-linecap:round;stroke-linejoin:round;stroke-opacity:1"/><rect x="8213.5" y="12414" width="4000" height="1500" rx="0" style="fill:#000;fill-opacity:0;stroke:#000;stroke-width:200;stroke-linecap:round;stroke-linejoin:round;stroke-opacity:1" fill="none"/><path style="fill:none;fill-opacity:0;stroke:#000;stroke-width:60;stroke-linecap:round;stroke-linejoin:round;stroke-opacity:1" d="M13713 13164h-1500M8213 13164H6714"/><g class="stroked-text" style="fill:#000;fill-opacity:0;stroke:#000;stroke-width:60;stroke-linecap:round;stroke-linejoin:round;stroke-opacity:1" transform="translate(-273686 -65636)"><path d="m283783 77616-233-333M283383 77616v-700h267l66 34 34 33 33 67v100l-33 66-34 34-66 33h-267M284383 77150v466M284216 76883l-166 500h433" fill="none"/></g><g class="stroked-text" style="fill:#000;fill-opacity:0;stroke:#000;stroke-width:60;stroke-linecap:round;stroke-linejoin:round;stroke-opacity:1" transform="translate(-273686 -65636)"><path d="M283766 80616h-400M283566 80616v-700l-66 100-67 67-67 33M284200 79916h66l67 34 33 33 34 67 33 133v167l-33 133-34 67-33 33-67 33h-66l-67-33-33-33-34-67-33-133v-167l33-133 34-67 33-33 67-34" fill="none"/></g><path style="fill:none;fill-opacity:0;stroke:#000;stroke-width:60;stroke-linecap:round;stroke-linejoin:round;stroke-opacity:1" d="M12713 3164v5000"/><path style="fill:none;fill-opacity:0;stroke:#000;stroke-width:200;stroke-linecap:round;stroke-linejoin:round;stroke-opacity:1" d="M11713 4664h1000l-1000 2000h2000l-1000-2000h1000"/><g class="stroked-text" style="fill:#000;fill-opacity:0;stroke:#000;stroke-width:60;stroke-linecap:round;stroke-linejoin:round;stroke-opacity:1" transform="translate(-273686 -65636)"><path d="m287806 70416 233 700 233-700M288506 71116v-700h166l100 34 67 66 33 67 34 133v100l-34 134-33 66-67 67-100 33h-166M289572 71116h-400M289372 71116v-700l-66 100-67 67-67 33" fill="none"/></g><g class="stroked-text" style="fill:#000;fill-opacity:0;stroke:#000;stroke-width:60;stroke-linecap:round;stroke-linejoin:round;stroke-opacity:1" transform="translate(-273686 -65636)"><path d="M288056 71650h-234M287822 72016v-700h334M288822 72016l-233-333M288422 72016v-700h267l67 34 33 33 33 67v100l-33 66-33 34-67 33h-267M289489 72016h-400M289289 72016v-700l-67 100-66 67-67 33M289922 71316h67l67 34 33 33 33 67 34 133v167l-34 133-33 67-33 33-67 33h-67l-66-33-34-33-33-67-33-133v-167l33-133 33-67 34-33 66-34M290389 71316h467l-300 700M291056 71316l166 700 134-500 133 500 167-700" fill="none"/></g><path style="fill:none;fill-opacity:0;stroke:#000;stroke-width:60;stroke-linecap:round;stroke-linejoin:round;stroke-opacity:1" d="M19713 3164v1750M19713 6414v1750"/><path style="fill:none;fill-opacity:0;stroke:#000;stroke-width:200;stroke-linecap:round;stroke-linejoin:round;stroke-opacity:1" d="M20213 6414V4914h-1000v1500h1000l1000 1250V3664l-1000 1250"/><g class="stroked-text" style="fill:#000;fill-opacity:0;stroke:#000;stroke-width:60;stroke-linecap:round;stroke-linejoin:round;stroke-opacity:1" transform="translate(-273686 -65636)"><path d="m295683 70640 100 33 34 33 33 67v100l-33 67-34 33-66 33h-267v-700h233l67 34 33 33 34 67v66l-34 67-33 33-67 34h-233M296117 70806h333M296050 71006l233-700 234 700M297117 71006h-400M296917 71006v-700l-67 100-67 67-66 33" fill="none"/></g><g class="stroked-text" style="fill:#000;fill-opacity:0;stroke:#000;stroke-width:60;stroke-linecap:round;stroke-linejoin:round;stroke-opacity:1" transform="translate(-273686 -65636)"><path d="m295683 71850 100 33 34 33 33 67v100l-33 67-34 33-66 33h-267v-700h233l67 34 33 33 34 67v66l-34 67-33 33-67 34h-233M296150 71516v567l33 67 34 33 66 33h134l66-33 34-33 33-67v-567M296817 71516h466l-466 700h466M297483 71516h467l-467 700h467M298217 71850h233M298550 72216h-333v-700h333M299250 72216l-233-333M298850 72216v-700h267l66 34 34 33 33 67v100l-33 66-34 34-66 33h-267" fill="none"/></g><path style="fill:none;fill-opacity:0;stroke:#000;stroke-width:200;stroke-linecap:round;stroke-linejoin:round;stroke-opacity:1" d="M18463 17164h2500M18963 17664h1500M19463 18164h500"/><path style="fill:none;fill-opacity:0;stroke:#000;stroke-width:60;stroke-linecap:round;stroke-linejoin:round;stroke-opacity:1" d="M19713 15164v2000"/><rect x="12963.5" y="14664" width="1500" height="4000" rx="0" style="fill:#000;fill-opacity:0;stroke:#000;stroke-width:200;stroke-linecap:round;stroke-linejoin:round;stroke-opacity:1" fill="none"/><path style="fill:none;fill-opacity:0;stroke:#000;stroke-width:60;stroke-linecap:round;stroke-linejoin:round;stroke-opacity:1" d="M13713 13164v1500M13713 18664v1500"/><g class="stroked-text" style="fill:#000;fill-opacity:0;stroke:#000;stroke-width:60;stroke-linecap:round;stroke-linejoin:round;stroke-opacity:1" transform="translate(-273686 -65636)"><path d="m289283 82116-233-333M288883 82116v-700h267l66 34 34 33 33 67v100l-33 66-34 34-66 33h-267M289916 81416h-333l-33 334 33-34 67-33h166l67 33 33 34 34 66v167l-34 67-33 33-67 33h-166l-67-33-33-33" fill="none"/></g><g class="stroked-text" style="fill:#000;fill-opacity:0;stroke:#000;stroke-width:60;stroke-linecap:round;stroke-linejoin:round;stroke-opacity:1" transform="translate(-273686 -65636)"><path d="M289000 82650v466M288833 82383l-167 500h434M289366 83050l34 33-34 33-33-33 33-33v66M289633 82416h467l-300 700M290366 83116v-700M290433 82850l200 266M290633 82650l-267 266" fill="none"/></g><path style="fill:none;fill-opacity:0;stroke:#000;stroke-width:60;stroke-linecap:round;stroke-linejoin:round;stroke-opacity:1" d="M13713 13164h3500"/><path style="fill:none;fill-opacity:0;stroke:#000;stroke-width:200;stroke-linecap:round;stroke-linejoin:round;stroke-opacity:1" d="M17213 10164v3000"/><path style="fill:none;fill-opacity:0;stroke:#000;stroke-width:100;stroke-linecap:round;stroke-linejoin:round;stroke-opacity:1" d="M17713 13164h2000M17713 10164h2000"/><path style="fill:none;fill-opacity:0;stroke:#000;stroke-width:200;stroke-linecap:round;stroke-linejoin:round;stroke-opacity:1" d="M17713 9664v4000"/><path style="fill:none;fill-opacity:0;stroke:#000;stroke-width:60;stroke-linecap:round;stroke-linejoin:round;stroke-opacity:1" d="M19713 13164v2000M19713 10164V8164"/><path style="fill:none;fill-opacity:0;stroke:#000;stroke-width:100;stroke-linecap:round;stroke-linejoin:round;stroke-opacity:1" d="M17713 11664h2000v1500"/><path style="fill:#000;fill-opacity:1;fill-rule:evenodd;stroke:#000;stroke-width:100;stroke-linecap:round;stroke-linejoin:round;stroke-opacity:1" d="m18463 11914-750-250 750-250z"/><circle cx="17713.5" cy="11664" r="2500" style="fill:#000;fill-opacity:0;stroke:#000;stroke-width:200;stroke-linecap:round;stroke-linejoin:round;stroke-opacity:1" fill="none"/><g class="stroked-text" style="fill:#000;fill-opacity:0;stroke:#000;stroke-width:60;stroke-linecap:round;stroke-linejoin:round;stroke-opacity:1" transform="translate(-273686 -65636)"><path d="m294390 76306 233 700 234-700M294990 76306h400M295190 77006v-700M295990 77006h-400M295790 77006v-700l-67 100-66 67-67 33" fill="none"/></g><g class="stroked-text" style="fill:#000;fill-opacity:0;stroke:#000;stroke-width:60;stroke-linecap:round;stroke-linejoin:round;stroke-opacity:1" transform="translate(-273686 -65636)"><path d="M294490 78216v-700M295223 78216l-233-333M294823 78216v-700h267l67 34 33 33 33 67v100l-33 66-33 34-67 33h-267M295857 78216h-334v-700M296090 78216v-700l233 500 234-500v700M297223 78216h-333v-700M297423 77583l34-33 66-34h167l67 34 33 33 33 67v66l-33 100-400 400h433M298457 77516h-334l-33 334 33-34 67-33h167l66 33 34 34 33 66v167l-33 67-34 33-66 33h-167l-67-33-33-33M298923 77516h67l67 34 33 33 33 67 34 133v167l-34 133-33 67-33 33-67 33h-67l-66-33-34-33-33-67-33-133v-167l33-133 33-67 34-33 66-34M299423 77583l34-33 66-34h167l67 34 33 33 33 67v66l-33 100-400 400h433" fill="none"/></g><path style="fill:none;fill-opacity:0;stroke:#000;stroke-width:200;stroke-linecap:round;stroke-linejoin:round;stroke-opacity:1" d="M12463 22164h2500M12963 22664h1500M13463 23164h500"/><path style="fill:none;fill-opacity:0;stroke:#000;stroke-width:60;stroke-linecap:round;stroke-linejoin:round;stroke-opacity:1" d="M13713 20164v2000M19713 3164V1164"/><path style="fill:none;fill-opacity:0;stroke:#000;stroke-width:200;stroke-linecap:round;stroke-linejoin:round;stroke-opacity:1" d="M20963 1164h-2500"/><g class="stroked-text" style="fill:#000;fill-opacity:0;stroke:#000;stroke-width:60;stroke-linecap:round;stroke-linejoin:round;stroke-opacity:1" transform="translate(-273686 -65636)"><path d="m292843 66000 100 33 34 33 33 67v100l-33 67-34 33-66 33h-267v-700h233l67 34 33 33 34 67v66l-34 67-33 33-67 34h-233M293277 66166h333M293210 66366l233-700 234 700M293810 65666h400M294010 66366v-700" fill="none"/></g><path d="M417 12830h400M617 13530v-700M1050 13530v-700M1384 13530v-700l233 500 233-500v700M2550 13530h-400M2350 13530v-700l-66 100-67 67-67 33M3217 13530h-400M3017 13530v-700l-67 100-66 67-67 33M3350 13597h534M4450 13464l-33 33-100 33h-67l-100-33-66-67-34-66-33-134v-100l33-133 34-67 66-66 100-34h67l100 34 33 33M4750 13530v-700M4750 13164h400M5150 13530v-700M5850 13530h-400M5650 13530v-700l-66 100-67 67-67 33" style="fill:#000;fill-opacity:0;stroke:#000;stroke-width:60;stroke-linecap:round;stroke-linejoin:round;stroke-opacity:1" fill="none"/><path style="fill:none;fill-opacity:0;stroke:#000;stroke-width:60;stroke-linecap:round;stroke-linejoin:round;stroke-opacity:1" d="m6714 13164-525-613H30v1226h6159z"/><path d="M12713 3164h7000M12713 8164h7000" style="fill:#000;fill-opacity:0;stroke:#000;stroke-width:60;stroke-linecap:round;stroke-linejoin:round;stroke-opacity:1" fill="none"/><circle cx="19713.5" cy="8164" r="180" style="fill:#000;fill-opacity:1;stroke:#000;stroke-width:60;stroke-linecap:round;stroke-linejoin:round;stroke-opacity:1"/><circle cx="13713.5" cy="13164" r="180" style="fill:#000;fill-opacity:1;stroke:#000;stroke-width:60;stroke-linecap:round;stroke-linejoin:round;stroke-opacity:1"/><circle cx="19713.5" cy="3164" r="180" style="fill:#000;fill-opacity:1;stroke:#000;stroke-width:60;stroke-linecap:round;stroke-linejoin:round;stroke-opacity:1"/><text xml:space="preserve" style="font-style:normal;font-weight:400;font-size:4166.67px;line-height:1.25;font-family:sans-serif;opacity:.19268293;fill:#000;fill-opacity:1;stroke:none;stroke-width:104.167" x="6017.4" y="21746.5" transform="rotate(-3)"><tspan style="font-style:normal;font-variant:normal;font-weight:400;font-stretch:condensed;font-size:4166.67px;font-family:'Arial Narrow';-inkscape-font-specification:'Arial Narrow, Condensed';font-variant-ligatures:normal;font-variant-caps:normal;font-variant-numeric:normal;font-variant-east-asian:normal;stroke-width:104.167" x="6017.4" y="21746.5">cxemka.com</tspan></text></svg>